<svg width="417" height="390" viewBox="0 0 417 390" fill="none" xmlns="http://www.w3.org/2000/svg">
<g filter="url(#filter0_d)">
<path d="M15 20C15 14.4772 19.4772 10 25 10H392C397.523 10 402 14.4772 402 20V343.84C402 349.024 398.039 353.348 392.875 353.802L209.375 369.923C208.793 369.974 208.207 369.974 207.625 369.923L24.1248 353.802C18.9611 353.348 15 349.024 15 343.84V20Z" fill="white"/>
</g>
<path d="M15 28C15 22.4771 19.4772 18 25 18H392C397.523 18 402 22.4772 402 28V117.567L208.5 133L15 117.567V28Z" fill="#4F4F4F" fill-opacity="0.25"/>
<path d="M15 20C15 14.4771 19.4772 10 25 10H392C397.523 10 402 14.4772 402 20V109.567L208.5 125L15 109.567V20Z" fill="#4F4F4F"/>
<defs>
<filter id="filter0_d" x="0" y="0" width="417" height="389.961" filterUnits="userSpaceOnUse" color-interpolation-filters="sRGB">
<feFlood flood-opacity="0" result="BackgroundImageFix"/>
<feColorMatrix in="SourceAlpha" type="matrix" values="0 0 0 0 0 0 0 0 0 0 0 0 0 0 0 0 0 0 127 0"/>
<feOffset dy="5"/>
<feGaussianBlur stdDeviation="7.5"/>
<feColorMatrix type="matrix" values="0 0 0 0 0 0 0 0 0 0 0 0 0 0 0 0 0 0 0.25 0"/>
<feBlend mode="normal" in2="BackgroundImageFix" result="effect1_dropShadow"/>
<feBlend mode="normal" in="SourceGraphic" in2="effect1_dropShadow" result="shape"/>
</filter>
</defs>
</svg>
